<svg width="36" height="36" viewBox="0 0 36 36" fill="none" xmlns="http://www.w3.org/2000/svg">
<path d="M33 13.5V22.5C33 26.25 32.25 28.875 30.57 30.57L21 21L32.595 9.40503C32.865 10.59 33 11.94 33 13.5Z" stroke="#292D32" stroke-width="1.5" stroke-linecap="round" stroke-linejoin="round"/>
<path d="M32.595 9.40501L9.40498 32.595C4.88998 31.56 3 28.44 3 22.5V13.5C3 6 6 3 13.5 3H22.5C28.44 3 31.56 4.89001 32.595 9.40501Z" stroke="#292D32" stroke-width="1.5" stroke-linecap="round" stroke-linejoin="round"/>
<path d="M30.5701 30.57C28.8751 32.25 26.25 33 22.5 33H13.5C11.94 33 10.59 32.865 9.40503 32.595L21 21L30.5701 30.57Z" stroke="#292D32" stroke-width="1.5" stroke-linecap="round" stroke-linejoin="round"/>
<path d="M9.35991 11.9701C10.3799 7.57508 16.9799 7.57508 17.9999 11.9701C18.5849 14.5501 16.9649 16.7401 15.5399 18.0901C14.5049 19.0801 12.8699 19.0801 11.8199 18.0901C10.3949 16.7401 8.75991 14.5501 9.35991 11.9701Z" stroke="#292D32" stroke-width="1.5"/>
<path d="M13.6419 13.05H13.6554" stroke="#292D32" stroke-width="2" stroke-linecap="round" stroke-linejoin="round"/>
</svg>
